<svg width="240" height="240" viewBox="0 0 240 240" xmlns="http://www.w3.org/2000/svg">
  <!-- Background circle -->
  <circle cx="120" cy="120" r="110" fill="#FFFBEA" stroke="#FBC02D" stroke-width="4"/>

  <!-- Ground / shadow -->
  <ellipse cx="120" cy="182" rx="72" ry="18" fill="#000000" opacity="0.06"/>

  <!-- Jar body -->
  <rect x="80" y="82" width="80" height="88" rx="22" fill="#FFE082" stroke="#F9A825" stroke-width="2"/>
  <rect x="86" y="88" width="68" height="74" rx="20" fill="#FFECB3"/>

  <!-- Ghee level -->
  <rect x="86" y="116" width="68" height="40" rx="18" fill="#FFCA28" opacity="0.95"/>

  <!-- Jar neck -->
  <rect x="90" y="64" width="60" height="18" rx="8" fill="#FFE082" stroke="#F9A825" stroke-width="2"/>
  <!-- Cloth/foil band -->
  <rect x="92" y="60" width="56" height="6" rx="3" fill="#FBC02D"/>

  <!-- Lid / top rim -->
  <ellipse cx="120" cy="60" rx="30" ry="6" fill="#FFF8E1" stroke="#F9A825" stroke-width="1.5"/>

  <!-- Label -->
  <rect x="94" y="118" width="52" height="30" rx="10" fill="#FFFDF5" stroke="#FBC02D" stroke-width="1.5"/>

  <!-- Small ghee drop on label -->
  <path d="M120 122 C116 129,114 133,114 136 C114 140,117 143,120 143 C123 143,126 140,126 136 C126 133,124 129,120 122 Z"
        fill="#FBC02D" stroke="#F57F17" stroke-width="1.1"/>

  <!-- Warm highlight on glass -->
  <path d="M90 96 C90 84,102 78,102 78 L102 158 C95 148,90 138,90 128 Z"
        fill="#FFFFFF" opacity="0.35"/>

  <!-- Wooden spoon hint on side -->
  <path d="M152 86 C158 80,166 80,170 86 C174 92,173 100,168 104 L160 150 C159 154,155 156,152 154 C149 152,148 148,149 145 L157 100 C153 96,150 92,152 86 Z"
        fill="#D7CCC8" stroke="#8D6E63" stroke-width="1.4"/>

  <!-- Sparkle for 'pure' feel -->
  <path d="M96 72 L100 76 L96 80 L92 76 Z" fill="#FFFFFF" opacity="0.9"/>
  <circle cx="102" cy="70" r="2" fill="#FFFFFF" opacity="0.9"/>
</svg>
