<svg width="240" height="240" viewBox="0 0 240 240" xmlns="http://www.w3.org/2000/svg">
  <!-- Background circle -->
  <circle cx="120" cy="120" r="110" fill="#FFF9E6" stroke="#F2C94C" stroke-width="4"/>

  <!-- Ground / base -->
  <ellipse cx="120" cy="178" rx="70" ry="18" fill="#000000" opacity="0.06"/>

  <!-- Bottle body -->
  <rect x="96" y="82" width="48" height="86" rx="12" fill="#FAD96B" stroke="#D9A63A" stroke-width="2"/>
  <rect x="100" y="88" width="40" height="72" rx="10" fill="#FFE9A3"/>

  <!-- Bottle neck -->
  <rect x="106" y="64" width="28" height="20" rx="6" fill="#FAD96B" stroke="#D9A63A" stroke-width="2"/>
  <rect x="110" y="60" width="20" height="6" rx="3" fill="#D9A63A"/>

  <!-- Label -->
  <rect x="104" y="106" width="32" height="34" rx="8" fill="#FFFDF5" stroke="#F2C94C" stroke-width="1.5"/>

  <!-- Oil drop on label -->
  <path d="M120 112 C116 120,114 124,114 128 C114 133,117 137,120 137 C123 137,126 133,126 128 C126 124,124 120,120 112 Z"
        fill="#F2C94C" stroke="#D9A63A" stroke-width="1.2"/>

  <!-- Highlight on bottle -->
  <path d="M104 94 C104 82,114 76,114 76 L114 156 C108 148,104 140,104 130 Z"
        fill="#FFFFFF" opacity="0.35"/>

  <!-- Small oil drop near neck -->
  <path d="M144 78 C141 83,140 86,140 89 C140 93,142 96,145 96 C148 96,150 93,150 89 C150 86,149 83,144 78 Z"
        fill="#F2C94C" stroke="#D9A63A" stroke-width="1"/>

  <!-- Decorative leaves for 'premium / natural' feel -->
  <path d="M72 152 C80 146,90 144,98 146 C92 154,84 160,74 162 Z"
        fill="#8BC34A" stroke="#558B2F" stroke-width="1.5"/>
  <path d="M76 144 C84 140,94 139,102 142 C95 148,87 152,78 154 Z"
        fill="#AED581" stroke="#558B2F" stroke-width="1.2"/>

  <path d="M168 152 C160 146,150 144,142 146 C148 154,156 160,166 162 Z"
        fill="#8BC34A" stroke="#558B2F" stroke-width="1.5"/>
  <path d="M164 144 C156 140,146 139,138 142 C145 148,153 152,162 154 Z"
        fill="#AED581" stroke="#558B2F" stroke-width="1.2"/>

  <!-- Sparkle for premium touch -->
  <path d="M96 72 L100 76 L96 80 L92 76 Z" fill="#FFFFFF" opacity="0.9"/>
  <circle cx="98" cy="70" r="2" fill="#FFFFFF" opacity="0.9"/>
</svg>
