<svg width="240" height="240" viewBox="0 0 240 240" xmlns="http://www.w3.org/2000/svg">
  <!-- Background circle -->
  <circle cx="120" cy="120" r="110" fill="#FFF8E7" stroke="#E0C08A" stroke-width="4"/>

  <!-- Pooja plate -->
  <ellipse cx="120" cy="160" rx="70" ry="20" fill="#D99B42"/>
  <ellipse cx="120" cy="156" rx="68" ry="16" fill="#F4C46C"/>

  <!-- Diya base -->
  <path d="M80 130 Q120 180 160 130 Z" fill="#B5651D"/>
  <path d="M88 132 Q120 172 152 132 Z" fill="#D87E2C"/>

  <!-- Diya oil surface -->
  <ellipse cx="120" cy="132" rx="30" ry="8" fill="#F9D27C"/>

  <!-- Flame -->
  <path d="M120 94 Q110 112 120 124 Q130 112 120 94 Z" fill="#FFA726"/>
  <path d="M120 100 Q114 112 120 120 Q126 112 120 100 Z" fill="#FFEE58"/>

  <!-- Incense sticks -->
  <rect x="92" y="88" width="3" height="40" fill="#5D4037"/>
  <rect x="100" y="82" width="3" height="46" fill="#5D4037"/>

  <!-- Incense smoke -->
  <path d="M93.5 80 C90 70, 96 62, 93 54" stroke="#B0BEC5" stroke-width="1.5" fill="none"/>
  <path d="M101.5 74 C98 64, 104 56, 101 48" stroke="#B0BEC5" stroke-width="1.5" fill="none"/>

  <!-- Flower on plate -->
  <circle cx="150" cy="152" r="9" fill="#E91E63"/>
  <circle cx="150" cy="152" r="4" fill="#FFC107"/>

  <!-- Small kumkum/haldi bowls -->
  <ellipse cx="96" cy="150" rx="10" ry="5" fill="#8D6E63"/>
  <ellipse cx="96" cy="148" rx="9" ry="4" fill="#F44336"/>
  <ellipse cx="114" cy="150" rx="10" ry="5" fill="#8D6E63"/>
  <ellipse cx="114" cy="148" rx="9" ry="4" fill="#FFEB3B"/>
</svg>
