<svg width="240" height="240" viewBox="0 0 240 240" xmlns="http://www.w3.org/2000/svg">
  <!-- Background circle -->
  <circle cx="120" cy="120" r="110" fill="#FFF5FB" stroke="#F7A8D0" stroke-width="4"/>

  <!-- Plate -->
  <ellipse cx="120" cy="155" rx="80" ry="26" fill="#E0E0E0"/>
  <ellipse cx="120" cy="150" rx="78" ry="22" fill="#FFFFFF"/>

  <!-- Sweet 1: Laddu -->
  <circle cx="90" cy="130" r="14" fill="#F4B24C" stroke="#D3842A" stroke-width="2"/>
  <circle cx="90" cy="130" r="7" fill="#F7D58A"/>

  <!-- Sweet 2: Laddu -->
  <circle cx="118" cy="124" r="13" fill="#F7C55C" stroke="#D3842A" stroke-width="2"/>
  <circle cx="118" cy="124" r="6" fill="#FFE08A"/>

  <!-- Sweet 3: Laddu -->
  <circle cx="146" cy="130" r="14" fill="#F4B24C" stroke="#D3842A" stroke-width="2"/>
  <circle cx="146" cy="130" r="7" fill="#F7D58A"/>

  <!-- Barfi stack 1 -->
  <rect x="80" y="142" width="22" height="10" rx="2" fill="#FBE9E7" stroke="#D7CCC8" stroke-width="1.5"/>
  <rect x="82" y="139" width="18" height="8" rx="2" fill="#FFCDD2"/>
  <polygon points="82,139 100,139 101,140 83,140" fill="#F8BBD0"/>

  <!-- Barfi stack 2 -->
  <rect x="138" y="144" width="22" height="10" rx="2" fill="#FFF8E1" stroke="#D7CCC8" stroke-width="1.5"/>
  <rect x="140" y="141" width="18" height="8" rx="2" fill="#FFE082"/>
  <polygon points="140,141 158,141 159,142 141,142" fill="#FFD54F"/>

  <!-- Syrup/gulab jamun bowl -->
  <ellipse cx="120" cy="165" rx="20" ry="8" fill="#E0E0E0"/>
  <ellipse cx="120" cy="163" rx="18" ry="6" fill="#E57373"/>
  <circle cx="112" cy="162" r="4" fill="#FFAB91"/>
  <circle cx="128" cy="162" r="4" fill="#FFAB91"/>

  <!-- Plate shadow -->
  <ellipse cx="120" cy="176" rx="70" ry="18" fill="#000000" opacity="0.06"/>
</svg>
